<svg width="140" height="90" viewBox="0 0 140 90" fill="none" xmlns="http://www.w3.org/2000/svg">
<path d="M124.851 50.9802C123.721 54.0503 122.358 57.0974 120.644 60.0557C112.068 74.8588 97.7379 83.799 86.8941 88.7951C89.3239 89.1037 91.8675 89.3305 94.5465 89.3305C100.154 89.3305 106.147 88.4841 111.862 86.0793C131.19 77.9378 140 55.0452 140 55.0452C140 55.0452 133.672 52.3277 124.851 50.9802ZM19.3561 60.0511C17.645 57.0931 16.2793 54.048 15.1514 50.9805C6.32758 52.3277 0 55.0455 0 55.0455C0 55.0455 8.80741 77.9381 28.1385 86.0796C33.8505 88.4842 39.8441 89.3308 45.4538 89.3308C48.1328 89.3308 50.6787 89.104 53.1082 88.7954C42.2622 83.7992 27.9327 74.8568 19.3561 60.0511V60.0511ZM88.5666 77.0481C96.9625 72.4091 106.301 65.3904 112.219 55.174C125.135 32.8599 116.801 3.88196 116.801 3.88196C116.801 3.88196 104.638 6.90408 92.5311 15.0068C96.436 22.817 99.5268 32.2397 99.5268 42.5113C99.5268 56.1002 94.1165 68.2019 88.5666 77.0481V77.0481ZM51.436 77.0481C45.8858 68.2019 40.4755 56.1002 40.4755 42.5113C40.4755 32.2397 43.5663 22.817 47.4712 15.0068C35.3647 6.90408 23.2012 3.88196 23.2012 3.88196C23.2012 3.88196 14.8677 32.8602 27.7838 55.174C33.7019 65.3904 43.0404 72.4091 51.436 77.0481ZM70.0023 0C70.0023 0 50.212 19.0313 50.212 42.5116C50.212 65.9876 70.0023 85.0209 70.0023 85.0209C70.0023 85.0209 89.7909 65.9879 89.7909 42.5116C89.7909 19.0313 70.0023 0 70.0023 0V0Z" fill="#474881"/>
</svg>
