<svg width="45" height="34" viewBox="0 0 45 34" fill="none" xmlns="http://www.w3.org/2000/svg">
<path opacity="0.05" d="M24.375 21.9844C24.375 12.345 31.6725 2.26125 43.125 0L44.97 3.98625C40.8169 5.55187 37.1644 11.0025 36.7575 14.76C41.4281 15.495 45 19.5356 45 24.4144C45 30.3806 40.155 33.75 35.2519 33.75C29.5988 33.75 24.375 29.4281 24.375 21.9844ZM0 21.9844C0 12.345 7.2975 2.26125 18.75 0L20.595 3.98625C16.4419 5.55187 12.7894 11.0025 12.3825 14.76C17.0531 15.495 20.625 19.5356 20.625 24.4144C20.625 30.3806 15.78 33.75 10.8769 33.75C5.22375 33.75 0 29.4281 0 21.9844Z" fill="#474881"/>
</svg>
